# Blender v2.82 (sub 7) OBJ File: 'workspace.blend'
# www.blender.org
o Plane
v -1.000000 -1.000000 0.000000
v -0.822499 1.000000 0.000000
v -2.649411 -2.404449 -0.000000
v -2.829050 3.498612 -0.000000
v -2.508084 5.082699 -0.000000
v -1.000000 -1.000000 -0.489319
v -2.649411 -2.404449 -0.489319
v -0.639052 -1.000000 -0.000000
v -0.639052 1.000000 -0.000000
v -0.639052 -2.404448 -0.000000
v -0.639052 3.498612 -0.000000
v -0.639052 5.082699 -0.000000
v -0.639052 6.340171 -0.000000
v -0.639052 -1.000000 -0.489319
v -0.639052 1.000000 -0.489319
v -0.639052 -2.404448 -0.489319
v -0.639052 3.498612 -0.489319
v -0.639052 5.082699 -0.489319
v -1.979774 5.845426 -0.000000
v -1.035247 6.340171 -0.000000
v -0.639052 1.000000 -0.489319
v -0.822499 1.000000 -0.092993
v -0.857535 0.605225 -0.489319
v -0.709254 1.000000 -0.459151
v -0.768768 1.000000 -0.373238
v -0.808535 1.000000 -0.244660
v -2.373256 3.498612 -0.489319
v -2.829050 3.498612 -0.092993
v -2.547681 3.498612 -0.459151
v -2.695551 3.498612 -0.373238
v -2.794354 3.498612 -0.244661
v -2.052841 5.082699 -0.489319
v -2.508084 5.082699 -0.092993
v -2.227055 5.082699 -0.459151
v -2.374746 5.082699 -0.373238
v -2.473430 5.082699 -0.244661
v -0.639052 6.340171 -0.092993
v -0.639052 5.943845 -0.489319
v -0.413222 6.340171 -0.815012
v -0.639052 6.310002 -0.244661
v -0.639052 6.224090 -0.373238
v -0.639052 6.095512 -0.459151
v -0.937732 5.943845 -0.489319
v -1.035247 6.340171 -0.092993
v -0.975049 6.095512 -0.459151
v -1.006685 6.224090 -0.373238
v -1.027824 6.310002 -0.244661
v -1.750049 5.518352 -0.489319
v -1.979774 5.845426 -0.092993
v -1.837961 5.643517 -0.459151
v -1.912489 5.749628 -0.373238
v -1.962288 5.820529 -0.244661
v 1.000000 -1.000000 0.000000
v 0.822499 1.000000 0.000000
v 2.649411 -2.404449 -0.000000
v 2.829050 3.498612 -0.000000
v 2.508084 5.082699 -0.000000
v 1.000000 -1.000000 -0.489319
v 2.649411 -2.404449 -0.489319
v 0.639052 -1.000000 -0.000000
v 0.639052 1.000000 -0.000000
v 0.639052 -2.404448 -0.000000
v 0.639052 3.498612 -0.000000
v 0.639052 5.082699 -0.000000
v 0.639052 6.340171 -0.000000
v 0.639052 -1.000000 -0.489319
v 0.639052 1.000000 -0.489319
v 0.639052 -2.404448 -0.489319
v 0.639052 3.498612 -0.489319
v 0.639052 5.082699 -0.489319
v 0.000000 -1.000000 1.914065
v 0.000000 1.000000 0.725101
v 0.000000 -2.404448 2.152029
v 0.000000 3.498612 0.520388
v 0.000000 5.082699 2.100884
v 0.000000 6.340171 2.543561
v 0.000000 5.082699 -0.947621
v 0.000000 6.340171 -1.508976
v 1.979774 5.845426 -0.000000
v 1.035247 6.340171 -0.000000
v 0.639052 1.000000 -0.489319
v 0.822499 1.000000 -0.092993
v 0.857535 0.605225 -0.489319
v 0.709254 1.000000 -0.459151
v 0.768768 1.000000 -0.373238
v 0.808535 1.000000 -0.244660
v 2.373256 3.498612 -0.489319
v 2.829050 3.498612 -0.092993
v 2.547681 3.498612 -0.459151
v 2.695551 3.498612 -0.373238
v 2.794354 3.498612 -0.244661
v 2.052841 5.082699 -0.489319
v 2.508084 5.082699 -0.092993
v 2.227055 5.082699 -0.459151
v 2.374746 5.082699 -0.373238
v 2.473430 5.082699 -0.244661
v 0.639052 6.340171 -0.092993
v 0.639052 5.943845 -0.489319
v 0.413222 6.340171 -0.815012
v 0.639052 6.310002 -0.244661
v 0.639052 6.224090 -0.373238
v 0.639052 6.095512 -0.459151
v 0.937732 5.943845 -0.489319
v 1.035247 6.340171 -0.092993
v 0.975049 6.095512 -0.459151
v 1.006685 6.224090 -0.373238
v 1.027824 6.310002 -0.244661
v 1.750049 5.518352 -0.489319
v 1.979774 5.845426 -0.092993
v 1.837961 5.643517 -0.459151
v 1.912489 5.749628 -0.373238
v 1.962288 5.820529 -0.244661
v -0.321047 -1.000000 -0.879100
v 0.321047 -1.000000 -0.879100
v -0.452075 1.000000 -0.579939
v 0.452075 1.000000 -0.579939
v 0.289414 -2.404448 -0.993569
v -0.289414 -2.404448 -0.993569
v 0.000000 -2.404448 -0.907894
v -0.300590 3.498612 -0.621919
v 0.300590 3.498612 -0.621919
v 0.000000 3.807909 -0.832147
v 0.290518 1.179730 -0.653969
v -0.290518 1.179730 -0.653969
vt 0.000000 1.000000
vt 0.000000 0.000000
vt 0.000000 1.000000
vt 1.000000 0.000000
vt 1.000000 1.000000
vt 1.000000 1.000000
vt 1.000000 1.000000
vt 1.000000 0.000000
vt 1.000000 0.000000
vt 1.000000 0.000000
vt 1.000000 1.000000
vt 0.000000 0.000000
vt 0.000000 1.000000
vt 0.000000 1.000000
vt 0.000000 0.000000
vt 1.000000 0.000000
vt 0.802613 1.000000
vt 1.000000 1.000000
vt 1.000000 1.000000
vt 1.000000 0.396976
vt 1.000000 0.000000
vt 1.000000 0.000000
vt 1.000000 0.000000
vt 1.000000 0.000000
vt 1.000000 0.000000
vt 1.000000 0.756429
vt 1.000000 0.791875
vt 1.000000 1.000000
vt 1.000000 0.000000
vt 0.000000 0.000000
vt 0.000000 0.000000
vt 0.000000 0.000000
vt 0.000000 0.000000
vt 1.000000 0.000000
vt 1.000000 0.396976
vt 1.000000 0.000000
vt 1.000000 0.000000
vt 0.000000 0.000000
vt 0.000000 0.000000
vt 0.000000 0.000000
vt 1.000000 0.000000
vt 1.000000 0.000000
vt 1.000000 0.000000
vt 1.000000 0.000000
vt 0.000000 0.000000
vt 1.000000 0.000000
vt 1.000000 0.000000
vt 1.000000 0.230806
vt 1.000000 0.715288
vt 1.000000 0.382684
vt 1.000000 0.707107
vt 1.000000 0.000000
vt 1.000000 0.000000
vt 1.000000 1.000000
vt 1.000000 1.000000
vt 1.000000 1.000000
vt 1.000000 1.000000
vt 1.000000 1.000000
vt 1.000000 0.871521
vt 1.000000 1.000000
vt 1.000000 1.000000
vt 1.000000 0.849640
vt 1.000000 0.815824
vt 1.000000 0.281739
vt 1.000000 0.995715
vt 1.000000 0.390743
vt 1.000000 0.998887
vt 1.000000 0.395356
vt 1.000000 0.000000
vt 0.000000 1.000000
vt 0.000000 0.000000
vt 1.000000 1.000000
vt 1.000000 0.000000
vt 1.000000 1.000000
vt 1.000000 1.000000
vt 1.000000 0.000000
vt 1.000000 0.000000
vt 1.000000 0.000000
vt 1.000000 1.000000
vt 0.000000 1.000000
vt 0.000000 1.000000
vt 0.802613 1.000000
vt 1.000000 0.000000
vt 1.000000 1.000000
vt 1.000000 1.000000
vt 0.000000 1.000000
vt 1.000000 0.000000
vt 1.000000 0.396976
vt 1.000000 0.000000
vt 1.000000 0.756429
vt 1.000000 0.000000
vt 1.000000 0.791875
vt 1.000000 1.000000
vt 1.000000 0.000000
vt 1.019901 0.000000
vt 1.000000 0.396976
vt 1.000000 0.000000
vt 1.000000 0.000000
vt 1.000000 0.000000
vt 0.000000 0.000000
vt 1.000000 0.000000
vt 1.000000 0.230806
vt 1.000000 0.707107
vt 1.000000 0.923880
vt 1.000000 0.000000
vt 1.000000 0.000000
vt 1.000000 1.000000
vt 1.000000 1.000000
vt 1.000000 1.000000
vt 1.000000 1.000000
vt 1.000000 0.871521
vt 1.000000 1.000000
vt 1.000000 0.382684
vt 1.000000 1.000000
vt 1.000000 1.000000
vt 1.000000 0.849640
vt 1.000000 0.815824
vt 1.000000 0.715288
vt 1.000000 0.995715
vt 1.000000 0.281739
vt 1.000000 0.998887
vt 1.000000 0.390743
vt 1.000000 0.395356
vt 1.000000 0.000000
vt 0.000000 0.000000
vt 0.000000 0.000000
vt 1.000000 0.000000
vt 1.000000 0.000000
vt 1.000000 0.923880
vt 1.012789 0.000000
vn -0.0000 0.0000 -1.0000
vn 0.5828 -0.0000 0.8126
vn 0.7797 0.6262 0.0000
vn 0.0000 -0.0000 1.0000
vn 0.8221 -0.5694 0.0000
vn -0.0000 1.0000 0.0000
vn 0.0000 -1.0000 0.0000
vn 0.6483 -0.7614 0.0000
vn 0.9801 -0.1986 0.0000
vn 0.9575 -0.0482 -0.2843
vn 0.9567 -0.0000 -0.2910
vn 0.4640 -0.8858 0.0000
vn 0.4360 -0.0214 0.8997
vn -0.7748 -0.0000 0.6322
vn 0.6314 -0.0000 -0.7754
vn 0.3514 0.2682 0.8970
vn 0.9322 -0.1850 -0.3112
vn 0.7491 -0.0541 -0.6602
vn 0.7753 -0.3323 0.5371
vn 0.8345 -0.4582 0.3062
vn 0.7676 0.6164 0.1756
vn 0.6708 0.5332 0.5155
vn 0.4684 0.3612 0.8063
vn 0.1691 0.1244 0.9777
vn 0.9564 -0.1938 0.2185
vn 0.7832 -0.1586 0.6011
vn 0.5002 -0.1013 0.8599
vn 0.1705 -0.0345 0.9847
vn 0.0905 -0.1728 0.9808
vn 0.2578 -0.4921 0.8315
vn 0.3858 -0.7365 0.5556
vn 0.4551 -0.8688 0.1951
vn 0.1694 -0.1176 0.9785
vn 0.4748 -0.3291 0.8162
vn 0.6952 -0.4816 0.5336
vn 0.8079 -0.5596 0.1846
vn 0.0000 -0.1951 0.9808
vn 0.0000 -0.5556 0.8315
vn 0.0000 -0.8315 0.5556
vn 0.0000 -0.9808 0.1951
vn 0.9961 -0.0884 0.0000
vn -0.5828 -0.0000 0.8126
vn -0.7797 0.6262 0.0000
vn -0.8221 -0.5694 0.0000
vn -0.6483 -0.7614 0.0000
vn -0.9801 -0.1986 0.0000
vn -0.9485 0.0000 -0.3167
vn 0.0000 0.3809 0.9246
vn -0.9567 -0.0000 -0.2910
vn -0.4640 -0.8858 0.0000
vn -0.4360 -0.0214 0.8997
vn 0.4361 0.0000 0.8999
vn -0.6314 -0.0000 -0.7754
vn 0.7748 -0.0000 0.6322
vn -0.7502 -0.0000 -0.6612
vn -0.9146 -0.2888 0.2829
vn -0.8861 -0.2575 0.3853
vn -0.7676 0.6164 0.1756
vn -0.6708 0.5332 0.5155
vn -0.4684 0.3612 0.8063
vn -0.1691 0.1244 0.9777
vn -0.9563 -0.1938 0.2188
vn -0.7829 -0.1586 0.6016
vn -0.4998 -0.1012 0.8602
vn -0.1703 -0.0345 0.9848
vn -0.0905 -0.1728 0.9808
vn -0.2578 -0.4921 0.8315
vn -0.3858 -0.7365 0.5556
vn -0.4551 -0.8688 0.1951
vn -0.1688 -0.1173 0.9786
vn -0.4738 -0.3287 0.8170
vn -0.6946 -0.4815 0.5345
vn -0.8078 -0.5596 0.1850
vn -0.9961 -0.0884 0.0000
vn 0.0000 -0.1479 0.9890
vn 0.0000 -0.0812 0.9967
vn -0.4361 0.0000 0.8999
vn 0.0000 0.5621 0.8270
vn 0.0000 -0.0138 0.9999
vn -0.3514 0.2682 0.8970
vn 0.8376 0.2227 0.4988
vn 0.7089 0.1605 0.6868
vn 0.9485 0.0000 -0.3167
vn 0.9663 0.0855 -0.2428
vn 0.3648 -0.0113 0.9310
vn 0.4271 0.0000 0.9042
vn -0.8215 -0.0279 0.5696
vn 0.9188 0.2788 -0.2795
vn 0.5812 0.0734 0.8104
vn 0.4727 0.0000 0.8812
vn 0.7502 -0.0000 -0.6612
vn 0.9800 -0.1776 0.0902
vn 0.3857 -0.2135 0.8976
vn 0.9146 -0.2888 0.2829
vn 0.8691 -0.0965 0.4852
vn 0.5292 -0.8322 0.1655
vn 0.8861 -0.2575 0.3853
vn 0.7808 0.6206 0.0719
vn 0.7692 0.5931 0.2379
vn 0.7034 0.5175 0.4873
vn 0.3808 0.2643 0.8861
vn 0.9563 -0.1938 0.2188
vn 0.7829 -0.1586 0.6016
vn 0.4998 -0.1012 0.8602
vn 0.1703 -0.0345 0.9848
vn 0.1688 -0.1173 0.9786
vn 0.4738 -0.3287 0.8170
vn 0.6946 -0.4815 0.5345
vn 0.8078 -0.5596 0.1850
vn -0.7089 0.1605 0.6868
vn -0.8376 0.2227 0.4988
vn -0.9575 -0.0482 -0.2843
vn -0.9663 0.0855 -0.2428
vn -0.4271 0.0000 0.9042
vn -0.3648 -0.0113 0.9310
vn 0.7741 -0.0438 0.6316
vn -0.9188 0.2788 -0.2795
vn 0.8215 -0.0279 0.5696
vn -0.9322 -0.1850 -0.3112
vn -0.7491 -0.0541 -0.6602
vn -0.3857 -0.2135 0.8976
vn -0.9800 -0.1776 0.0902
vn -0.7753 -0.3323 0.5371
vn -0.5292 -0.8322 0.1655
vn -0.8691 -0.0965 0.4852
vn -0.8345 -0.4582 0.3062
vn -0.7808 0.6206 0.0719
vn -0.7692 0.5931 0.2379
vn -0.7034 0.5175 0.4873
vn -0.3808 0.2643 0.8861
vn -0.9564 -0.1938 0.2185
vn -0.7832 -0.1586 0.6011
vn -0.5002 -0.1013 0.8599
vn -0.1705 -0.0345 0.9847
vn -0.1694 -0.1176 0.9785
vn -0.4748 -0.3291 0.8162
vn -0.6952 -0.4816 0.5336
vn -0.8079 -0.5596 0.1846
vn -0.7741 -0.0438 0.6316
vn -0.4727 0.0000 0.8812
vn -0.5812 0.0734 0.8104
s off
f 1/1/1 10/2/1 3/3/1
f 11/4/1 2/5/1 4/6/1
f 5/7/1 11/4/1 4/6/1
f 38/8/2 18/9/2 77/10/2
f 2/5/3 28/11/3 4/6/3
f 16/12/4 6/13/4 7/14/4
f 14/15/4 15/16/4 23/17/4
f 5/7/5 49/18/5 19/19/5
f 10/2/6 7/14/6 3/3/6
f 20/20/1 13/21/1 12/22/1
f 78/23/7 13/21/7 39/24/7
f 3/3/8 6/13/8 1/1/8
f 17/25/4 32/26/4 27/27/4
f 4/6/9 33/28/9 5/7/9
f 21/29/4 17/25/4 27/27/4
f 10/2/10 71/30/10 73/31/10
f 119/32/6 73/31/6 62/33/6
f 13/21/11 75/34/11 12/22/11
f 20/20/12 49/18/12 44/35/12
f 15/16/13 115/36/13 124/37/13
f 114/38/14 68/39/14 66/40/14
f 37/41/7 20/20/7 44/35/7
f 12/22/15 74/42/15 11/4/15
f 17/25/16 120/43/16 122/44/16
f 8/45/17 72/46/17 71/30/17
f 9/47/18 74/42/18 72/46/18
f 2/5/1 8/45/1 1/1/1
f 18/9/4 43/48/4 48/49/4
f 24/50/19 25/51/19 23/17/19
f 40/52/20 41/53/20 39/24/20
f 22/54/21 31/55/21 28/11/21
f 26/56/22 30/57/22 31/55/22
f 25/58/23 29/59/23 30/57/23
f 24/50/24 27/27/24 29/59/24
f 33/28/25 31/55/25 36/60/25
f 36/60/26 30/57/26 35/61/26
f 35/61/27 29/59/27 34/62/27
f 34/62/28 27/27/28 32/26/28
f 43/48/29 50/63/29 48/49/29
f 45/64/30 51/65/30 50/63/30
f 46/66/31 52/67/31 51/65/31
f 47/68/32 49/18/32 52/67/32
f 32/26/33 50/63/33 34/62/33
f 34/62/34 51/65/34 35/61/34
f 35/61/35 52/67/35 36/60/35
f 36/60/36 49/18/36 33/28/36
f 43/48/37 42/69/37 45/64/37
f 45/64/38 41/53/38 46/66/38
f 46/66/39 40/52/39 47/68/39
f 47/68/40 37/41/40 44/35/40
f 1/1/41 6/13/41 23/17/41
f 53/70/1 62/33/1 60/71/1
f 54/72/1 63/73/1 56/74/1
f 57/75/1 63/73/1 64/76/1
f 77/10/42 70/77/42 98/78/42
f 88/79/43 54/72/43 56/74/43
f 58/80/4 68/39/4 59/81/4
f 83/82/4 81/83/4 66/40/4
f 109/84/44 57/75/44 79/85/44
f 59/81/6 62/33/6 55/86/6
f 64/76/1 65/87/1 80/88/1
f 99/89/7 65/87/7 78/23/7
f 58/80/45 55/86/45 53/70/45
f 92/90/4 69/91/4 87/92/4
f 93/93/46 56/74/46 57/75/46
f 81/83/4 69/91/4 67/94/4
f 62/33/47 71/30/47 60/71/47
f 116/95/48 124/37/48 115/36/48
f 75/34/49 65/87/49 64/76/49
f 109/84/50 80/88/50 104/96/50
f 123/97/51 116/98/51 67/94/51
f 14/15/52 115/36/52 15/16/52
f 104/96/7 65/87/7 97/99/7
f 74/42/53 64/76/53 63/73/53
f 16/12/54 113/100/54 14/15/54
f 60/71/55 72/46/55 61/101/55
f 10/2/6 73/31/6 119/32/6
f 61/101/53 74/42/53 63/73/53
f 54/72/1 60/71/1 61/101/1
f 103/102/4 98/78/4 70/77/4
f 85/103/56 83/82/56 86/104/56
f 101/105/57 99/89/57 102/106/57
f 91/107/58 82/108/58 88/79/58
f 90/109/59 86/110/59 91/107/59
f 89/111/60 85/112/60 90/109/60
f 87/92/61 84/113/61 89/111/61
f 93/93/62 91/107/62 88/79/62
f 96/114/63 90/109/63 91/107/63
f 95/115/64 89/111/64 90/109/64
f 94/116/65 87/92/65 89/111/65
f 110/117/66 103/102/66 108/118/66
f 111/119/67 105/120/67 110/117/67
f 112/121/68 106/122/68 111/119/68
f 109/84/69 107/123/69 112/121/69
f 92/90/70 110/117/70 108/118/70
f 94/116/71 111/119/71 110/117/71
f 95/115/72 112/121/72 111/119/72
f 96/114/73 109/84/73 112/121/73
f 103/102/37 102/106/37 98/78/37
f 105/120/38 101/105/38 102/106/38
f 106/122/39 100/124/39 101/105/39
f 107/123/40 97/99/40 100/124/40
f 83/82/74 58/80/74 53/70/74
f 117/125/6 118/126/6 119/32/6
f 116/98/75 113/100/75 114/38/75
f 114/38/76 118/126/76 117/125/76
f 116/98/77 66/40/77 67/94/77
f 120/43/78 121/127/78 122/44/78
f 124/37/79 121/127/79 120/43/79
f 122/44/80 121/127/80 69/91/80
f 1/1/1 8/45/1 10/2/1
f 11/4/1 9/47/1 2/5/1
f 5/7/1 12/22/1 11/4/1
f 78/23/81 39/24/81 77/10/81
f 39/24/82 38/8/82 77/10/82
f 2/5/3 22/54/3 28/11/3
f 16/12/4 14/15/4 6/13/4
f 23/17/4 6/13/4 14/15/4
f 15/16/4 21/29/4 23/17/4
f 5/7/5 33/28/5 49/18/5
f 10/2/6 16/12/6 7/14/6
f 5/7/1 19/19/1 12/22/1
f 19/19/1 20/20/1 12/22/1
f 76/128/7 13/21/7 78/23/7
f 13/21/7 37/41/7 39/24/7
f 3/3/8 7/14/8 6/13/8
f 17/25/4 18/9/4 32/26/4
f 4/6/9 28/11/9 33/28/9
f 21/29/4 15/16/4 17/25/4
f 10/2/83 8/45/83 71/30/83
f 62/33/6 68/39/6 119/32/6
f 68/39/6 117/125/6 119/32/6
f 13/21/84 76/128/84 75/34/84
f 20/20/12 19/19/12 49/18/12
f 120/43/85 17/25/85 124/37/85
f 17/25/86 15/16/86 124/37/86
f 114/38/87 117/125/87 68/39/87
f 37/41/7 13/21/7 20/20/7
f 12/22/88 75/34/88 74/42/88
f 77/10/89 18/9/89 122/44/89
f 18/9/90 17/25/90 122/44/90
f 8/45/91 9/47/91 72/46/91
f 9/47/15 11/4/15 74/42/15
f 2/5/1 9/47/1 8/45/1
f 48/49/4 32/26/4 18/9/4
f 18/9/4 38/8/4 43/48/4
f 26/129/92 22/54/92 23/17/92
f 23/17/93 21/29/93 24/50/93
f 25/51/94 26/129/94 23/17/94
f 42/69/95 38/8/95 39/24/95
f 39/24/96 37/41/96 40/52/96
f 41/53/97 42/69/97 39/24/97
f 22/54/98 26/56/98 31/55/98
f 26/56/99 25/58/99 30/57/99
f 25/58/100 24/50/100 29/59/100
f 24/50/101 21/29/101 27/27/101
f 33/28/102 28/11/102 31/55/102
f 36/60/103 31/55/103 30/57/103
f 35/61/104 30/57/104 29/59/104
f 34/62/105 29/59/105 27/27/105
f 43/48/29 45/64/29 50/63/29
f 45/64/30 46/66/30 51/65/30
f 46/66/31 47/68/31 52/67/31
f 47/68/32 44/35/32 49/18/32
f 32/26/106 48/49/106 50/63/106
f 34/62/107 50/63/107 51/65/107
f 35/61/108 51/65/108 52/67/108
f 36/60/109 52/67/109 49/18/109
f 43/48/37 38/8/37 42/69/37
f 45/64/38 42/69/38 41/53/38
f 46/66/39 41/53/39 40/52/39
f 47/68/40 40/52/40 37/41/40
f 22/54/41 2/5/41 23/17/41
f 2/5/41 1/1/41 23/17/41
f 53/70/1 55/86/1 62/33/1
f 54/72/1 61/101/1 63/73/1
f 57/75/1 56/74/1 63/73/1
f 98/78/110 99/89/110 77/10/110
f 99/89/111 78/23/111 77/10/111
f 88/79/43 82/108/43 54/72/43
f 58/80/4 66/40/4 68/39/4
f 66/40/4 58/80/4 83/82/4
f 81/83/4 67/94/4 66/40/4
f 109/84/44 93/93/44 57/75/44
f 59/81/6 68/39/6 62/33/6
f 80/88/1 79/85/1 64/76/1
f 79/85/1 57/75/1 64/76/1
f 97/99/7 65/87/7 99/89/7
f 65/87/7 76/128/7 78/23/7
f 58/80/45 59/81/45 55/86/45
f 92/90/4 70/77/4 69/91/4
f 93/93/46 88/79/46 56/74/46
f 81/83/4 87/92/4 69/91/4
f 62/33/112 73/31/112 71/30/112
f 116/95/48 123/130/48 124/37/48
f 75/34/113 76/128/113 65/87/113
f 109/84/50 79/85/50 80/88/50
f 67/94/114 69/91/114 123/97/114
f 69/91/115 121/127/115 123/97/115
f 14/15/116 113/100/116 115/36/116
f 104/96/7 80/88/7 65/87/7
f 74/42/117 75/34/117 64/76/117
f 16/12/118 118/126/118 113/100/118
f 60/71/119 71/30/119 72/46/119
f 118/126/6 16/12/6 119/32/6
f 16/12/6 10/2/6 119/32/6
f 61/101/120 72/46/120 74/42/120
f 54/72/1 53/70/1 60/71/1
f 70/77/4 92/90/4 108/118/4
f 108/118/4 103/102/4 70/77/4
f 84/113/121 81/83/121 83/82/121
f 83/82/122 82/108/122 86/104/122
f 85/103/123 84/113/123 83/82/123
f 100/124/124 97/99/124 99/89/124
f 99/89/125 98/78/125 102/106/125
f 101/105/126 100/124/126 99/89/126
f 91/107/127 86/110/127 82/108/127
f 90/109/128 85/112/128 86/110/128
f 89/111/129 84/113/129 85/112/129
f 87/92/130 81/83/130 84/113/130
f 93/93/131 96/114/131 91/107/131
f 96/114/132 95/115/132 90/109/132
f 95/115/133 94/116/133 89/111/133
f 94/116/134 92/90/134 87/92/134
f 110/117/66 105/120/66 103/102/66
f 111/119/67 106/122/67 105/120/67
f 112/121/68 107/123/68 106/122/68
f 109/84/69 104/96/69 107/123/69
f 92/90/135 94/116/135 110/117/135
f 94/116/136 95/115/136 111/119/136
f 95/115/137 96/114/137 112/121/137
f 96/114/138 93/93/138 109/84/138
f 103/102/37 105/120/37 102/106/37
f 105/120/38 106/122/38 101/105/38
f 106/122/39 107/123/39 100/124/39
f 107/123/40 104/96/40 97/99/40
f 53/70/74 54/72/74 83/82/74
f 54/72/74 82/108/74 83/82/74
f 116/98/75 115/36/75 113/100/75
f 114/38/76 113/100/76 118/126/76
f 116/98/139 114/38/139 66/40/139
f 124/37/79 123/97/79 121/127/79
f 69/91/140 70/77/140 122/44/140
f 70/77/141 77/10/141 122/44/141
