ply
format ascii 1.0
comment Created by Blender 2.81 (sub 16) - www.blender.org, source file: 'boat_Base2.blend'
element vertex 600
property float x
property float y
property float z
property float nx
property float ny
property float nz
property float s
property float t
element face 108
property list uchar uint vertex_indices
end_header
-1.192280 -1.086509 -0.956683 -0.902742 0.359695 -0.235960 0.375000 0.000000
-1.969251 -2.209960 0.910116 -0.902742 0.359695 -0.235960 0.625000 0.000000
-0.967488 0.882360 1.184629 -0.902742 0.359695 -0.235960 0.625000 0.250000
-0.412761 0.524125 -0.876929 -0.902742 0.359695 -0.235960 0.375000 0.250000
-0.412761 0.524125 -0.876929 -0.436501 0.829488 -0.348448 0.375000 0.250000
-0.967488 0.882360 1.184629 -0.436501 0.829488 -0.348448 0.625000 0.250000
3.119405 3.304872 1.317952 -0.436501 0.829488 -0.348448 0.625000 0.500000
1.000000 1.000000 -1.000000 -0.436501 0.829488 -0.348448 0.375000 0.500000
1.000000 1.000000 -1.000000 0.838205 -0.385625 -0.385625 0.375000 0.500000
3.119405 3.304872 1.317952 0.838205 -0.385625 -0.385625 0.625000 0.500000
1.000000 -1.000000 1.000000 0.838205 -0.385625 -0.385625 0.625000 0.750000
0.297758 -0.554774 -0.955613 0.838205 -0.385625 -0.385625 0.375000 0.750000
0.297758 -0.554774 -0.955613 0.346955 -0.870021 -0.350265 0.375000 0.750000
1.000000 -1.000000 1.000000 0.346955 -0.870021 -0.350265 0.625000 0.750000
-1.969251 -2.209960 0.910116 0.346955 -0.870021 -0.350265 0.625000 1.000000
-1.192280 -1.086509 -0.956683 0.346955 -0.870021 -0.350265 0.375000 1.000000
-0.412761 0.524125 -0.876929 -0.054695 0.036752 -0.997827 0.125000 0.500000
1.000000 1.000000 -1.000000 -0.054695 0.036752 -0.997827 0.375000 0.500000
0.297758 -0.554774 -0.955613 -0.054695 0.036752 -0.997827 0.375000 0.750000
-1.192280 -1.086509 -0.956683 -0.054695 0.036752 -0.997827 0.125000 0.750000
3.119405 3.304872 1.317952 0.012217 -0.084953 0.996310 0.625000 0.500000
-0.967488 0.882360 1.184629 0.012217 -0.084953 0.996310 0.875000 0.500000
-1.969251 -2.209960 0.910116 0.012217 -0.084953 0.996310 0.875000 0.750000
1.000000 -1.000000 1.000000 0.012217 -0.084953 0.996310 0.625000 0.750000
-0.430735 0.351505 1.086346 -0.379230 0.836534 0.395469 1.000000 0.500000
-0.503257 0.091103 1.582320 -0.379230 0.836534 0.395469 1.000000 1.000000
-0.447499 0.109435 1.582320 -0.379230 0.836534 0.395469 0.968750 1.000000
-0.380201 0.381359 1.086346 -0.379230 0.836534 0.395469 0.968750 0.500000
-0.380201 0.381359 1.086346 -0.062364 0.873502 0.482810 0.968750 0.500000
-0.447499 0.109435 1.582320 -0.062364 0.873502 0.482810 0.968750 1.000000
-0.382565 0.107051 1.582320 -0.062364 0.873502 0.482810 0.937500 1.000000
-0.316264 0.392944 1.086346 -0.062364 0.873502 0.482810 0.937500 0.500000
-0.316264 0.392944 1.086346 0.172181 0.836980 0.519441 0.937500 0.500000
-0.382565 0.107051 1.582320 0.172181 0.836980 0.519441 0.937500 1.000000
-0.310949 0.084043 1.582320 0.172181 0.836980 0.519441 0.906250 1.000000
-0.241381 0.385815 1.086346 0.172181 0.836980 0.519441 0.906250 0.500000
-0.241381 0.385815 1.086346 0.334435 0.775889 0.534930 0.906250 0.500000
-0.310949 0.084043 1.582320 0.334435 0.775889 0.534930 0.906250 1.000000
-0.235403 0.041294 1.582320 0.334435 0.775889 0.534930 0.875000 1.000000
-0.158430 0.360246 1.086346 0.334435 0.775889 0.534930 0.875000 0.500000
-0.158430 0.360246 1.086346 0.448291 0.709529 0.543695 0.875000 0.500000
-0.235403 0.041294 1.582320 0.448291 0.709529 0.543695 0.875000 1.000000
-0.158832 -0.019552 1.582320 0.448291 0.709529 0.543695 0.843750 1.000000
-0.070599 0.317220 1.086346 0.448291 0.709529 0.543695 0.843750 0.500000
-0.070599 0.317220 1.086346 0.999675 -0.024538 0.006913 0.843750 0.500000
-0.158832 -0.019552 1.582320 0.999675 -0.024538 0.006913 0.843750 1.000000
-0.084176 -0.096158 1.582320 0.999675 -0.024538 0.006913 0.812500 1.000000
-0.155730 -0.086341 0.896827 0.999675 -0.024538 0.006913 0.812500 0.500000
-0.155730 -0.086341 0.896827 0.749552 0.659293 -0.059195 0.812500 0.500000
-0.084176 -0.096158 1.582320 0.749552 0.659293 -0.059195 0.812500 1.000000
-0.014306 -0.185579 1.582320 0.749552 0.659293 -0.059195 0.781250 1.000000
-0.068322 -0.158714 1.086346 0.749552 0.659293 -0.059195 0.781250 0.500000
-0.068322 -0.158714 1.086346 0.782752 0.621782 -0.026189 0.781250 0.500000
-0.014306 -0.185579 1.582320 0.782752 0.621782 -0.026189 0.781250 1.000000
0.048094 -0.284379 1.582320 0.782752 0.621782 -0.026189 0.750000 1.000000
0.013798 -0.241848 1.086346 0.782752 0.621782 -0.026189 0.750000 0.500000
0.013798 -0.241848 1.086346 0.874486 0.484959 -0.009442 0.750000 0.500000
0.048094 -0.284379 1.582320 0.874486 0.484959 -0.009442 0.750000 1.000000
0.100626 -0.388761 1.582320 0.874486 0.484959 -0.009442 0.718750 1.000000
0.100626 -0.388761 1.086346 0.874486 0.484959 -0.009442 0.718750 0.500000
0.100626 -0.388761 1.086346 0.933660 0.358161 0.000000 0.718750 0.500000
0.100626 -0.388761 1.582320 0.933660 0.358161 0.000000 0.718750 1.000000
0.141270 -0.494714 1.582320 0.933660 0.358161 0.000000 0.687500 1.000000
0.141270 -0.494714 1.086346 0.933660 0.358161 0.000000 0.687500 0.500000
0.141270 -0.494714 1.086346 0.967141 0.254242 0.000000 0.687500 0.500000
0.141270 -0.494714 1.582320 0.967141 0.254242 0.000000 0.687500 1.000000
0.168466 -0.598166 1.582320 0.967141 0.254242 0.000000 0.656250 1.000000
0.168466 -0.598166 0.896827 0.967141 0.254242 0.000000 0.656250 0.500000
0.168466 -0.598166 0.896827 0.878593 0.472432 -0.069873 0.656250 0.500000
0.168466 -0.598166 1.582320 0.878593 0.472432 -0.069873 0.656250 1.000000
0.231795 -0.614556 1.582320 0.878593 0.472432 -0.069873 0.625000 1.000000
0.181167 -0.695141 1.086346 0.878593 0.472432 -0.069873 0.625000 0.500000
0.181167 -0.695141 1.086346 0.966826 0.220752 -0.128518 0.625000 0.500000
0.231795 -0.614556 1.582320 0.966826 0.220752 -0.128518 0.625000 1.000000
0.248160 -0.699802 1.582320 0.966826 0.220752 -0.128518 0.593750 1.000000
0.178886 -0.781913 0.896827 0.966826 0.220752 -0.128518 0.593750 0.500000
0.178886 -0.781913 0.896827 0.828421 -0.554812 -0.076824 0.593750 0.500000
0.248160 -0.699802 1.582320 0.828421 -0.554812 -0.076824 0.593750 1.000000
0.247075 -0.775015 1.582320 0.828421 -0.554812 -0.076824 0.562500 1.000000
0.161711 -0.855147 1.771989 0.828421 -0.554812 -0.076824 0.562500 0.500000
0.161711 -0.855147 1.771989 -0.793521 0.606447 -0.050464 0.562500 0.500000
0.247075 -0.775015 1.582320 -0.793521 0.606447 -0.050464 0.562500 1.000000
0.130301 -0.912029 1.582320 -0.793521 0.606447 -0.050464 0.531250 1.000000
0.130301 -0.912029 1.771989 -0.793521 0.606447 -0.050464 0.531250 0.500000
0.130301 -0.912029 1.771989 0.817629 -0.570682 0.076193 0.531250 0.500000
0.130301 -0.912029 1.582320 0.817629 -0.570682 0.076193 0.531250 1.000000
0.330144 -0.651032 1.582320 0.817629 -0.570682 0.076193 0.500000 1.000000
0.085863 -0.950373 1.771989 0.817629 -0.570682 0.076193 0.500000 0.500000
0.085863 -0.950373 1.771989 -0.210414 0.639973 0.739026 0.500000 0.500000
0.330144 -0.651032 1.582320 -0.210414 0.639973 0.739026 0.500000 1.000000
0.274387 -0.669364 1.582320 -0.210414 0.639973 0.739026 0.468750 1.000000
0.030105 -0.968706 1.771989 -0.210414 0.639973 0.739026 0.468750 0.500000
0.030105 -0.968706 1.771989 0.019234 0.523880 0.851575 0.468750 0.500000
0.274387 -0.669364 1.582320 0.019234 0.523880 0.851575 0.468750 1.000000
0.209452 -0.666980 1.582320 0.019234 0.523880 0.851575 0.437500 1.000000
-0.034829 -0.966321 1.771989 0.019234 0.523880 0.851575 0.437500 0.500000
-0.034829 -0.966321 1.771989 0.308670 0.272610 0.911267 0.437500 0.500000
0.209452 -0.666980 1.582320 0.308670 0.272610 0.911267 0.437500 1.000000
0.178506 -0.573860 1.582320 0.308670 0.272610 0.911267 0.406250 1.000000
-0.106445 -0.943313 1.771989 0.308670 0.272610 0.911267 0.406250 0.500000
-0.106445 -0.943313 1.771989 0.155879 0.361639 0.919195 0.406250 0.500000
0.178506 -0.573860 1.582320 0.155879 0.361639 0.919195 0.406250 1.000000
0.095555 -0.548291 1.582320 0.155879 0.361639 0.919195 0.375000 1.000000
-0.181991 -0.900564 1.771989 0.155879 0.361639 0.919195 0.375000 0.500000
-0.181991 -0.900564 1.771989 0.149505 0.405301 0.901876 0.375000 0.500000
0.095555 -0.548291 1.582320 0.149505 0.405301 0.901876 0.375000 1.000000
-0.014282 -0.540376 1.582320 0.149505 0.405301 0.901876 0.343750 1.000000
-0.258563 -0.839718 1.771989 0.149505 0.405301 0.901876 0.343750 0.500000
-0.258563 -0.839718 1.771989 0.317246 0.309169 0.896532 0.343750 0.500000
-0.014282 -0.540376 1.582320 0.317246 0.309169 0.896532 0.343750 1.000000
-0.088937 -0.463770 1.582320 0.317246 0.309169 0.896532 0.312500 1.000000
-0.333218 -0.763112 1.771989 0.317246 0.309169 0.896532 0.312500 0.500000
-0.333218 -0.763112 1.771989 0.354296 0.276834 0.893218 0.312500 0.500000
-0.088937 -0.463770 1.582320 0.354296 0.276834 0.893218 0.312500 1.000000
-0.158807 -0.374349 1.582320 0.354296 0.276834 0.893218 0.281250 1.000000
-0.403089 -0.673691 1.771989 0.354296 0.276834 0.893218 0.281250 0.500000
-0.403089 -0.673691 1.771989 0.388696 0.245492 0.888059 0.281250 0.500000
-0.158807 -0.374349 1.582320 0.388696 0.245492 0.888059 0.281250 1.000000
-0.221207 -0.275549 1.582320 0.388696 0.245492 0.888059 0.250000 1.000000
-0.465489 -0.574891 1.771989 0.388696 0.245492 0.888059 0.250000 0.500000
-0.465489 -0.574891 1.771989 0.422999 0.212880 0.880769 0.250000 0.500000
-0.221207 -0.275549 1.582320 0.422999 0.212880 0.880769 0.250000 1.000000
-0.273739 -0.171167 1.582320 0.422999 0.212880 0.880769 0.218750 1.000000
-0.518020 -0.470509 1.771989 0.422999 0.212880 0.880769 0.218750 0.500000
-0.518020 -0.470509 1.771989 0.459705 0.176347 0.870387 0.218750 0.500000
-0.273739 -0.171167 1.582320 0.459705 0.176347 0.870387 0.218750 1.000000
-0.314383 -0.065215 1.582320 0.459705 0.176347 0.870387 0.187500 1.000000
-0.558665 -0.364556 1.771989 0.459705 0.176347 0.870387 0.187500 0.500000
-0.558665 -0.364556 1.771989 -0.257585 0.832275 0.490885 0.187500 0.500000
-0.314383 -0.065215 1.582320 -0.257585 0.832275 0.490885 0.187500 1.000000
-0.585860 -0.261104 1.582320 -0.257585 0.832275 0.490885 0.156250 1.000000
-0.585860 -0.261104 1.771989 -0.257585 0.832275 0.490885 0.156250 0.500000
-0.585860 -0.261104 1.771989 0.991532 0.129863 0.000000 0.156250 0.500000
-0.585860 -0.261104 1.582320 0.991532 0.129863 0.000000 0.156250 1.000000
-0.598561 -0.164129 1.582320 0.991532 0.129863 0.000000 0.125000 1.000000
-0.598561 -0.164129 1.771989 0.991532 0.129863 0.000000 0.125000 0.500000
-0.598561 -0.164129 1.771989 0.516727 -0.780878 -0.351031 0.125000 0.500000
-0.598561 -0.164129 1.582320 0.516727 -0.780878 -0.351031 0.125000 1.000000
-0.596280 -0.077357 1.582320 0.516727 -0.780878 -0.351031 0.093750 1.000000
-0.351999 0.221985 1.086346 0.516727 -0.780878 -0.351031 0.093750 0.500000
-0.351999 0.221985 1.086346 -0.530027 -0.653356 -0.540554 0.093750 0.500000
-0.596280 -0.077357 1.582320 -0.530027 -0.653356 -0.540554 0.093750 1.000000
-0.579104 -0.004123 1.582320 -0.530027 -0.653356 -0.540554 0.062500 1.000000
-0.484417 0.242239 1.086346 -0.530027 -0.653356 -0.540554 0.062500 0.500000
-0.447499 0.109435 1.582320 -0.000000 0.000000 1.000000 0.296822 0.485388
-0.503257 0.091103 1.582320 -0.000000 0.000000 1.000000 0.250000 0.490000
-0.547694 0.052759 1.582320 -0.000000 0.000000 1.000000 0.203179 0.485389
-0.579104 -0.004123 1.582320 -0.000000 0.000000 1.000000 0.158156 0.471731
-0.596280 -0.077357 1.582320 -0.000000 0.000000 1.000000 0.116663 0.449553
-0.598561 -0.164129 1.582320 -0.000000 0.000000 1.000000 0.080295 0.419706
-0.585860 -0.261104 1.582320 -0.000000 0.000000 1.000000 0.050447 0.383337
-0.314383 -0.065215 1.582320 -0.000000 0.000000 1.000000 0.028269 0.341844
-0.273739 -0.171167 1.582320 -0.000000 0.000000 1.000000 0.014612 0.296822
-0.221207 -0.275549 1.582320 -0.000000 0.000000 1.000000 0.010000 0.250000
-0.158807 -0.374349 1.582320 -0.000000 0.000000 1.000000 0.014611 0.203179
-0.088937 -0.463770 1.582320 -0.000000 0.000000 1.000000 0.028269 0.158156
-0.014282 -0.540376 1.582320 -0.000000 0.000000 1.000000 0.050447 0.116663
0.095555 -0.548291 1.582320 -0.000000 0.000000 1.000000 0.080294 0.080294
0.178506 -0.573860 1.582320 -0.000000 0.000000 1.000000 0.116663 0.050447
0.209452 -0.666980 1.582320 -0.000000 0.000000 1.000000 0.158156 0.028269
0.274387 -0.669364 1.582320 -0.000000 0.000000 1.000000 0.203178 0.014612
0.330144 -0.651032 1.582320 -0.000000 0.000000 1.000000 0.250000 0.010000
0.130301 -0.912029 1.582320 -0.000000 0.000000 1.000000 0.296822 0.014612
0.247075 -0.775015 1.582320 -0.000000 0.000000 1.000000 0.341844 0.028269
0.248160 -0.699802 1.582320 -0.000000 0.000000 1.000000 0.383337 0.050447
0.231795 -0.614556 1.582320 -0.000000 0.000000 1.000000 0.419706 0.080294
0.168466 -0.598166 1.582320 -0.000000 0.000000 1.000000 0.449553 0.116663
0.141270 -0.494714 1.582320 -0.000000 0.000000 1.000000 0.471731 0.158156
0.100626 -0.388761 1.582320 -0.000000 0.000000 1.000000 0.485388 0.203178
0.048094 -0.284379 1.582320 -0.000000 0.000000 1.000000 0.490000 0.250000
-0.014306 -0.185579 1.582320 -0.000000 0.000000 1.000000 0.485388 0.296822
-0.084176 -0.096158 1.582320 -0.000000 0.000000 1.000000 0.471731 0.341844
-0.158832 -0.019552 1.582320 -0.000000 0.000000 1.000000 0.449553 0.383337
-0.235403 0.041294 1.582320 -0.000000 0.000000 1.000000 0.419706 0.419706
-0.310949 0.084043 1.582320 -0.000000 0.000000 1.000000 0.383337 0.449553
-0.382565 0.107051 1.582320 -0.000000 0.000000 1.000000 0.341844 0.471731
-0.484417 0.242239 1.086346 -0.921984 0.386074 0.029866 0.062500 0.500000
-0.579104 -0.004123 1.582320 -0.921984 0.386074 0.029866 0.062500 1.000000
-0.547694 0.052759 1.582320 -0.921984 0.386074 0.029866 0.031250 1.000000
-0.465925 0.304531 1.086346 -0.921984 0.386074 0.029866 0.031250 0.500000
-0.465925 0.304531 1.086346 -0.711115 0.663673 0.232065 0.031250 0.500000
-0.547694 0.052759 1.582320 -0.711115 0.663673 0.232065 0.031250 1.000000
-0.503257 0.091103 1.582320 -0.711115 0.663673 0.232065 0.000000 1.000000
-0.430735 0.351505 1.086346 -0.711115 0.663673 0.232065 0.000000 0.500000
-0.430735 0.351505 1.086346 -0.649906 -0.437783 -0.621264 0.750000 0.490000
-0.380201 0.381359 1.086346 -0.649906 -0.437783 -0.621264 0.796822 0.485388
-0.316264 0.392944 1.086346 -0.649906 -0.437783 -0.621264 0.841844 0.471731
-0.241381 0.385815 1.086346 -0.649906 -0.437783 -0.621264 0.883337 0.449553
-0.158430 0.360246 1.086346 -0.649906 -0.437783 -0.621264 0.919706 0.419706
-0.070599 0.317220 1.086346 -0.649906 -0.437783 -0.621264 0.949553 0.383337
-0.155730 -0.086341 0.896827 -0.649906 -0.437783 -0.621264 0.971731 0.341844
-0.068322 -0.158714 1.086346 -0.649906 -0.437783 -0.621264 0.985388 0.296822
0.013798 -0.241848 1.086346 -0.649906 -0.437783 -0.621264 0.990000 0.250000
0.100626 -0.388761 1.086346 -0.649906 -0.437783 -0.621264 0.985388 0.203178
0.141270 -0.494714 1.086346 -0.649906 -0.437783 -0.621264 0.971731 0.158156
0.168466 -0.598166 0.896827 -0.649906 -0.437783 -0.621264 0.949553 0.116663
0.181167 -0.695141 1.086346 -0.649906 -0.437783 -0.621264 0.919706 0.080294
0.178886 -0.781913 0.896827 -0.649906 -0.437783 -0.621264 0.883337 0.050447
0.161711 -0.855147 1.771989 -0.649906 -0.437783 -0.621264 0.841844 0.028269
0.130301 -0.912029 1.771989 -0.649906 -0.437783 -0.621264 0.796822 0.014612
0.085863 -0.950373 1.771989 -0.649906 -0.437783 -0.621264 0.750000 0.010000
0.030105 -0.968706 1.771989 -0.649906 -0.437783 -0.621264 0.703178 0.014612
-0.034829 -0.966321 1.771989 -0.649906 -0.437783 -0.621264 0.658156 0.028269
-0.106445 -0.943313 1.771989 -0.649906 -0.437783 -0.621264 0.616663 0.050447
-0.181991 -0.900564 1.771989 -0.649906 -0.437783 -0.621264 0.580294 0.080294
-0.258563 -0.839718 1.771989 -0.649906 -0.437783 -0.621264 0.550447 0.116663
-0.333218 -0.763112 1.771989 -0.649906 -0.437783 -0.621264 0.528269 0.158156
-0.403089 -0.673691 1.771989 -0.649906 -0.437783 -0.621264 0.514611 0.203179
-0.465489 -0.574891 1.771989 -0.649906 -0.437783 -0.621264 0.510000 0.250000
-0.518020 -0.470509 1.771989 -0.649906 -0.437783 -0.621264 0.514612 0.296822
-0.558665 -0.364556 1.771989 -0.649906 -0.437783 -0.621264 0.528269 0.341844
-0.585860 -0.261104 1.771989 -0.649906 -0.437783 -0.621264 0.550447 0.383337
-0.598561 -0.164129 1.771989 -0.649906 -0.437783 -0.621264 0.580295 0.419706
-0.351999 0.221985 1.086346 -0.649906 -0.437783 -0.621264 0.616663 0.449553
-0.484417 0.242239 1.086346 -0.649906 -0.437783 -0.621264 0.658156 0.471731
-0.465925 0.304531 1.086346 -0.649906 -0.437783 -0.621264 0.703179 0.485389
0.703213 0.767524 1.797062 -0.088695 -0.995922 -0.016515 1.000000 0.500000
0.755277 0.737793 2.584018 -0.088695 -0.995922 -0.016515 1.000000 1.000000
0.694468 0.756258 2.523424 -0.088695 -0.995922 -0.016515 0.968750 1.000000
0.694468 0.756258 1.797062 -0.088695 -0.995922 -0.016515 0.968750 0.500000
0.337756 1.020140 -0.045119 -0.712442 0.701731 0.000000 1.000000 0.500000
0.337756 1.020140 1.954881 -0.712442 0.701731 0.000000 1.000000 1.000000
0.445896 1.129931 1.954881 -0.712442 0.701731 0.000000 0.968750 1.000000
0.445896 1.129931 -0.045119 -0.712442 0.701731 0.000000 0.968750 0.500000
0.445896 1.129931 -0.045119 -0.620222 0.784426 0.000000 0.968750 0.500000
0.445896 1.129931 1.954881 -0.620222 0.784426 0.000000 0.968750 1.000000
0.565224 1.224279 1.954881 -0.620222 0.784426 0.000000 0.937500 1.000000
0.565224 1.224279 -0.045119 -0.620222 0.784426 0.000000 0.937500 0.500000
0.766652 0.642038 1.797062 0.091864 0.992748 -0.077538 0.968750 0.500000
0.738334 0.719465 2.685047 0.091864 0.992748 -0.077538 0.968750 1.000000
0.730097 0.715592 2.695490 0.091864 0.992748 -0.077538 0.937500 1.000000
0.779843 0.646268 1.797062 0.091864 0.992748 -0.077538 0.937500 0.500000
0.703213 0.662384 1.797062 -0.704114 0.701521 0.109960 0.937500 0.500000
0.839275 0.665154 2.523424 -0.704114 0.701521 0.109960 0.937500 1.000000
0.829990 0.675776 2.523424 -0.704114 0.701521 0.109960 0.906250 1.000000
0.713868 0.653138 1.797062 -0.704114 0.701521 0.109960 0.906250 0.500000
0.565224 1.224279 -0.045119 -0.513108 0.858324 0.000000 0.937500 0.500000
0.565224 1.224279 1.954881 -0.513108 0.858324 0.000000 0.937500 1.000000
0.691153 1.299560 1.954881 -0.513108 0.858324 0.000000 0.906250 1.000000
0.691153 1.299560 -0.045119 -0.513108 0.858324 0.000000 0.906250 0.500000
0.691153 1.299560 -0.045119 0.856429 -0.514638 0.040959 0.906250 0.500000
0.691153 1.299560 1.954881 0.856429 -0.514638 0.040959 0.906250 1.000000
0.397071 0.969343 1.954881 0.856429 -0.514638 0.040959 0.875000 1.000000
0.818845 1.352880 -0.045119 0.856429 -0.514638 0.040959 0.875000 0.500000
0.818845 1.352880 -0.045119 -0.226917 0.964223 0.137054 0.875000 0.500000
0.397071 0.969343 1.954881 -0.226917 0.964223 0.137054 0.875000 1.000000
0.521618 0.998654 1.954881 -0.226917 0.964223 0.137054 0.843750 1.000000
0.943393 1.382191 -0.045119 -0.226917 0.964223 0.137054 0.843750 0.500000
0.943393 1.382191 -0.045119 -0.035179 0.982843 0.181059 0.843750 0.500000
0.521618 0.998654 1.954881 -0.035179 0.982843 0.181059 0.843750 1.000000
0.638235 1.002828 1.954881 -0.035179 0.982843 0.181059 0.812500 1.000000
1.060009 1.386365 -0.045119 -0.035179 0.982843 0.181059 0.812500 0.500000
0.683969 0.700450 1.797062 0.918646 -0.394878 -0.012643 0.906250 0.500000
0.703962 0.700450 2.523424 0.918646 -0.394878 -0.012643 0.906250 1.000000
0.687970 0.686503 2.523424 0.918646 -0.394878 -0.012643 0.875000 1.000000
0.687970 0.686503 1.797062 0.918646 -0.394878 -0.012643 0.875000 0.500000
0.713868 0.776770 1.797062 0.561900 -0.824205 -0.070388 0.875000 0.500000
0.767057 0.744215 2.579661 0.561900 -0.824205 -0.070388 0.875000 1.000000
0.755277 0.737793 2.584018 0.561900 -0.824205 -0.070388 0.843750 1.000000
0.703213 0.767524 1.797062 0.561900 -0.824205 -0.070388 0.843750 0.500000
1.060009 1.386365 -0.045119 0.193615 0.955163 0.224001 0.812500 0.500000
0.638235 1.002828 1.954881 0.193615 0.955163 0.224001 0.812500 1.000000
0.742439 0.981705 1.954881 0.193615 0.955163 0.224001 0.781250 1.000000
1.164214 1.365242 -0.045119 0.193615 0.955163 0.224001 0.781250 0.500000
0.792000 0.653139 1.797062 -0.995892 -0.000300 -0.090553 0.843750 0.500000
0.720180 0.710585 2.703950 -0.995892 -0.000300 -0.090553 0.843750 1.000000
0.708964 0.704638 2.710103 -0.995892 -0.000300 -0.090553 0.812500 1.000000
0.802655 0.662384 1.797062 -0.995892 -0.000300 -0.090553 0.812500 0.500000
1.164214 1.365242 -0.045119 0.445374 0.857270 0.258321 0.781250 0.500000
0.742439 0.981705 1.954881 0.445374 0.857270 0.258321 0.781250 1.000000
0.830226 0.936098 1.954881 0.445374 0.857270 0.258321 0.750000 1.000000
1.252001 1.319635 -0.045119 0.445374 0.857270 0.258321 0.750000 0.500000
1.252001 1.319635 -0.045119 0.681780 0.678361 0.273867 0.750000 0.500000
0.830226 0.936098 1.954881 0.681780 0.678361 0.273867 0.750000 1.000000
0.898223 0.867758 1.954881 0.681780 0.678361 0.273867 0.718750 1.000000
1.319997 1.251295 -0.045119 0.681780 0.678361 0.273867 0.718750 0.500000
1.319997 1.251295 -0.045119 0.856967 0.441759 0.265439 0.718750 0.500000
0.898223 0.867758 1.954881 0.856967 0.441759 0.265439 0.718750 1.000000
0.943816 0.779313 1.954881 0.856967 0.441759 0.265439 0.687500 1.000000
1.365590 1.162849 -0.045119 0.856967 0.441759 0.265439 0.687500 0.500000
0.726025 0.783640 1.797062 0.461674 -0.884381 -0.068758 0.812500 0.500000
0.777835 0.749851 2.572800 0.461674 -0.884381 -0.068758 0.812500 1.000000
0.767057 0.744215 2.579661 0.461674 -0.884381 -0.068758 0.781250 1.000000
0.713868 0.776770 1.797062 0.461674 -0.884381 -0.068758 0.781250 0.500000
1.365590 1.162849 -0.045119 0.951710 0.194025 0.237911 0.687500 0.500000
0.943816 0.779313 1.954881 0.951710 0.194025 0.237911 0.687500 1.000000
0.965254 0.674160 1.954881 0.951710 0.194025 0.237911 0.656250 1.000000
1.387028 1.057696 -0.045119 0.951710 0.194025 0.237911 0.656250 0.500000
0.713868 0.653138 1.797062 -0.830762 0.548174 0.096639 0.781250 0.500000
0.829990 0.675776 2.523424 -0.830762 0.548174 0.096639 0.781250 1.000000
0.818891 0.684250 2.523424 -0.830762 0.548174 0.096639 0.750000 1.000000
0.726025 0.646268 1.797062 -0.830762 0.548174 0.096639 0.750000 0.500000
1.387028 1.057696 -0.045119 0.979179 -0.029439 0.200851 0.656250 0.500000
0.965254 0.674160 1.954881 0.979179 -0.029439 0.200851 0.656250 1.000000
0.961712 0.556341 1.954881 0.979179 -0.029439 0.200851 0.625000 1.000000
1.383486 0.939878 -0.045119 0.979179 -0.029439 0.200851 0.625000 0.500000
1.383486 0.939878 -0.045119 -0.338723 0.939315 0.054349 0.625000 0.500000
0.961712 0.556341 1.954881 -0.338723 0.939315 0.054349 0.625000 1.000000
1.355100 0.813921 1.954881 -0.338723 0.939315 0.054349 0.593750 1.000000
1.355100 0.813921 -0.045119 -0.338723 0.939315 0.054349 0.593750 0.500000
1.355100 0.813921 -0.045119 0.927393 -0.374088 0.000000 0.593750 0.500000
1.355100 0.813921 1.954881 0.927393 -0.374088 0.000000 0.593750 1.000000
1.302962 0.684666 1.954881 0.927393 -0.374088 0.000000 0.562500 1.000000
1.302962 0.684666 -0.045119 0.927393 -0.374088 0.000000 0.562500 0.500000
0.752934 0.640609 1.797062 0.278162 0.957161 -0.080426 0.750000 0.500000
0.744573 0.722057 2.673023 0.278162 0.957161 -0.080426 0.750000 1.000000
0.738334 0.719465 2.685047 0.278162 0.957161 -0.080426 0.718750 1.000000
0.766652 0.642038 1.797062 0.278162 0.957161 -0.080426 0.718750 0.500000
0.720180 0.710585 2.703950 -0.257715 0.697988 -0.668128 0.383337 0.449553
0.730097 0.715592 2.695490 -0.257715 0.697988 -0.668128 0.341844 0.471731
0.738334 0.719465 2.685047 -0.257715 0.697988 -0.668128 0.296822 0.485388
0.744573 0.722057 2.673023 -0.257715 0.697988 -0.668128 0.250000 0.490000
0.748577 0.723267 2.659881 -0.257715 0.697988 -0.668128 0.203179 0.485389
0.818891 0.684250 2.523424 -0.257715 0.697988 -0.668128 0.158156 0.471731
0.829990 0.675776 2.523424 -0.257715 0.697988 -0.668128 0.116663 0.449553
0.839275 0.665154 2.523424 -0.257715 0.697988 -0.668128 0.080295 0.419706
0.846389 0.652794 2.523424 -0.257715 0.697988 -0.668128 0.050447 0.383337
0.687970 0.686503 2.523424 -0.257715 0.697988 -0.668128 0.028269 0.341844
0.703962 0.700450 2.523424 -0.257715 0.697988 -0.668128 0.014612 0.296822
0.702610 0.714954 2.523424 -0.257715 0.697988 -0.668128 0.010000 0.250000
0.703962 0.729458 2.523424 -0.257715 0.697988 -0.668128 0.014611 0.203179
0.707963 0.743405 2.523424 -0.257715 0.697988 -0.668128 0.028269 0.158156
0.694468 0.756258 2.523424 -0.257715 0.697988 -0.668128 0.050447 0.116663
0.755277 0.737793 2.584018 -0.257715 0.697988 -0.668128 0.080294 0.080294
0.767057 0.744215 2.579661 -0.257715 0.697988 -0.668128 0.116663 0.050447
0.777835 0.749851 2.572800 -0.257715 0.697988 -0.668128 0.158156 0.028269
0.787194 0.754483 2.563698 -0.257715 0.697988 -0.668128 0.203178 0.014612
0.794776 0.757933 2.552706 -0.257715 0.697988 -0.668128 0.250000 0.010000
0.766652 0.787870 2.523424 -0.257715 0.697988 -0.668128 0.296822 0.014612
0.779843 0.783640 2.523424 -0.257715 0.697988 -0.668128 0.341844 0.028269
0.792000 0.776770 2.523424 -0.257715 0.697988 -0.668128 0.383337 0.050447
0.802655 0.767524 2.523424 -0.257715 0.697988 -0.668128 0.419706 0.080294
0.811400 0.756258 2.523424 -0.257715 0.697988 -0.668128 0.449553 0.116663
0.817898 0.743405 2.523424 -0.257715 0.697988 -0.668128 0.471731 0.158156
0.712502 0.615013 2.523424 -0.257715 0.697988 -0.668128 0.485388 0.203178
0.713156 0.629565 2.523424 -0.257715 0.697988 -0.668128 0.490000 0.250000
0.716486 0.643746 2.523424 -0.257715 0.697988 -0.668128 0.485388 0.296822
0.722364 0.657011 2.523424 -0.257715 0.697988 -0.668128 0.471731 0.341844
0.730565 0.668850 2.523424 -0.257715 0.697988 -0.668128 0.449553 0.383337
0.708964 0.704638 2.710103 -0.257715 0.697988 -0.668128 0.419706 0.419706
1.302962 0.684666 -0.045119 0.865363 -0.501146 0.000000 0.562500 0.500000
1.302962 0.684666 1.954881 0.865363 -0.501146 0.000000 0.562500 1.000000
1.229075 0.557080 1.954881 0.865363 -0.501146 0.000000 0.531250 1.000000
1.229075 0.557080 -0.045119 0.865363 -0.501146 0.000000 0.531250 0.500000
0.687970 0.686503 1.797062 0.271687 0.962275 -0.014597 0.718750 0.500000
0.687970 0.686503 2.523424 0.271687 0.962275 -0.014597 0.718750 1.000000
0.846389 0.652794 2.523424 0.271687 0.962275 -0.014597 0.687500 1.000000
0.694468 0.673650 1.797062 0.271687 0.962275 -0.014597 0.687500 0.500000
0.739216 0.787870 1.797062 0.342929 -0.937246 -0.063008 0.687500 0.500000
0.787194 0.754483 2.563698 0.342929 -0.937246 -0.063008 0.687500 1.000000
0.777835 0.749851 2.572800 0.342929 -0.937246 -0.063008 0.656250 1.000000
0.726025 0.783640 1.797062 0.342929 -0.937246 -0.063008 0.656250 0.500000
1.229075 0.557080 -0.045119 0.793545 -0.608512 0.000000 0.531250 0.500000
1.229075 0.557080 1.954881 0.793545 -0.608512 0.000000 0.531250 1.000000
1.136278 0.436066 1.954881 0.793545 -0.608512 0.000000 0.500000 1.000000
1.136278 0.436066 -0.045119 0.793545 -0.608512 0.000000 0.500000 0.500000
1.136278 0.436066 -0.045119 0.712442 -0.701731 0.000000 0.500000 0.500000
1.136278 0.436066 1.954881 0.712442 -0.701731 0.000000 0.500000 1.000000
1.028138 0.326275 1.954881 0.712442 -0.701731 0.000000 0.468750 1.000000
1.028138 0.326275 -0.045119 0.712442 -0.701731 0.000000 0.468750 0.500000
1.028138 0.326275 -0.045119 0.620221 -0.784427 0.000000 0.468750 0.500000
1.028138 0.326275 1.954881 0.620221 -0.784427 0.000000 0.468750 1.000000
0.908811 0.231927 1.954881 0.620221 -0.784427 0.000000 0.437500 1.000000
0.908811 0.231927 -0.045119 0.620221 -0.784427 0.000000 0.437500 0.500000
0.908811 0.231927 -0.045119 0.513108 -0.858324 0.000000 0.437500 0.500000
0.908811 0.231927 1.954881 0.513108 -0.858324 0.000000 0.437500 1.000000
0.782881 0.156646 1.954881 0.513108 -0.858324 0.000000 0.406250 1.000000
0.782881 0.156646 -0.045119 0.513108 -0.858324 0.000000 0.406250 0.500000
0.752934 0.789299 1.797062 0.196772 -0.979002 -0.053254 0.656250 0.500000
0.794776 0.757933 2.552706 0.196772 -0.979002 -0.053254 0.656250 1.000000
0.787194 0.754483 2.563698 0.196772 -0.979002 -0.053254 0.625000 1.000000
0.739216 0.787870 1.797062 0.196772 -0.979002 -0.053254 0.625000 0.500000
0.817898 0.686503 1.797062 -0.339499 -0.935012 -0.102440 0.625000 0.500000
0.722364 0.657011 2.523424 -0.339499 -0.935012 -0.102440 0.625000 1.000000
0.716486 0.643746 2.523424 -0.339499 -0.935012 -0.102440 0.593750 1.000000
0.821899 0.700450 1.797062 -0.339499 -0.935012 -0.102440 0.593750 0.500000
0.782881 0.156646 -0.045119 0.385324 -0.922781 0.000000 0.406250 0.500000
0.782881 0.156646 1.954881 0.385324 -0.922781 0.000000 0.406250 1.000000
0.655189 0.103326 1.954881 0.385324 -0.922781 0.000000 0.375000 1.000000
0.655189 0.103326 -0.045119 0.385324 -0.922781 0.000000 0.375000 0.500000
0.726025 0.646268 1.797062 -0.347602 -0.933083 0.092354 0.593750 0.500000
0.818891 0.684250 2.523424 -0.347602 -0.933083 0.092354 0.593750 1.000000
0.748577 0.723267 2.659881 -0.347602 -0.933083 0.092354 0.562500 1.000000
0.739216 0.642038 1.797062 -0.347602 -0.933083 0.092354 0.562500 0.500000
0.655189 0.103326 -0.045119 0.229074 -0.973409 0.000000 0.375000 0.500000
0.655189 0.103326 1.954881 0.229074 -0.973409 0.000000 0.375000 1.000000
0.530641 0.074015 1.954881 0.229074 -0.973409 0.000000 0.343750 1.000000
0.530641 0.074015 -0.045119 0.229074 -0.973409 0.000000 0.343750 0.500000
0.530641 0.074015 -0.045119 0.035768 -0.999360 0.000000 0.343750 0.500000
0.530641 0.074015 1.954881 0.035768 -0.999360 0.000000 0.343750 1.000000
0.414025 0.069842 1.954881 0.035768 -0.999360 0.000000 0.312500 1.000000
0.414025 0.069842 -0.045119 0.035768 -0.999360 0.000000 0.312500 0.500000
0.811400 0.673650 1.797062 -0.509787 -0.856374 -0.082106 0.562500 0.500000
0.730565 0.668850 2.523424 -0.509787 -0.856374 -0.082106 0.562500 1.000000
0.722364 0.657011 2.523424 -0.509787 -0.856374 -0.082106 0.531250 1.000000
0.817898 0.686503 1.797062 -0.509787 -0.856374 -0.082106 0.531250 0.500000
0.414025 0.069842 -0.045119 -0.198663 -0.980068 0.000000 0.312500 0.500000
0.414025 0.069842 1.954881 -0.198663 -0.980068 0.000000 0.312500 1.000000
0.309821 0.090964 1.954881 -0.198663 -0.980068 0.000000 0.281250 1.000000
0.309821 0.090964 -0.045119 -0.198663 -0.980068 0.000000 0.281250 0.500000
0.309821 0.090964 -0.045119 -0.461023 -0.887388 0.000000 0.281250 0.500000
0.309821 0.090964 1.954881 -0.461023 -0.887388 0.000000 0.281250 1.000000
0.222034 0.136572 1.954881 -0.461023 -0.887388 0.000000 0.250000 1.000000
0.222034 0.136572 -0.045119 -0.461023 -0.887388 0.000000 0.250000 0.500000
0.694468 0.673650 1.797062 -0.553315 0.824290 0.119949 0.531250 0.500000
0.846389 0.652794 2.523424 -0.553315 0.824290 0.119949 0.531250 1.000000
0.839275 0.665154 2.523424 -0.553315 0.824290 0.119949 0.500000 1.000000
0.703213 0.662384 1.797062 -0.553315 0.824290 0.119949 0.500000 0.500000
0.766652 0.787870 1.797062 0.898964 0.437727 -0.016117 0.500000 0.500000
0.766652 0.787870 2.523424 0.898964 0.437727 -0.016117 0.500000 1.000000
0.794776 0.757933 2.552706 0.898964 0.437727 -0.016117 0.468750 1.000000
0.752934 0.789299 1.797062 0.898964 0.437727 -0.016117 0.468750 0.500000
0.222034 0.136572 -0.045119 -0.708882 -0.705327 0.000000 0.250000 0.500000
0.222034 0.136572 1.954881 -0.708882 -0.705327 0.000000 0.250000 1.000000
0.154037 0.204912 1.954881 -0.708882 -0.705327 0.000000 0.218750 1.000000
0.154037 0.204912 -0.045119 -0.708882 -0.705327 0.000000 0.218750 0.500000
0.802655 0.662384 1.797062 0.885185 0.457633 0.083779 0.468750 0.500000
0.708964 0.704638 2.710103 0.885185 0.457633 0.083779 0.468750 1.000000
0.730565 0.668850 2.523424 0.885185 0.457633 0.083779 0.437500 1.000000
0.811400 0.673650 1.797062 0.885185 0.457633 0.083779 0.437500 0.500000
0.154037 0.204912 -0.045119 -0.888852 -0.458194 0.000000 0.218750 0.500000
0.154037 0.204912 1.954881 -0.888852 -0.458194 0.000000 0.218750 1.000000
0.108444 0.293358 1.954881 -0.888852 -0.458194 0.000000 0.187500 1.000000
0.108444 0.293358 -0.045119 -0.888852 -0.458194 0.000000 0.187500 0.500000
0.823250 0.714954 1.797062 0.023777 -0.990870 -0.132709 0.437500 0.500000
0.713156 0.629565 2.523424 0.023777 -0.990870 -0.132709 0.437500 1.000000
0.712502 0.615013 2.523424 0.023777 -0.990870 -0.132709 0.406250 1.000000
0.821899 0.729458 1.797062 0.023777 -0.990870 -0.132709 0.406250 0.500000
0.108444 0.293358 -0.045119 -0.979845 -0.199759 0.000000 0.187500 0.500000
0.108444 0.293358 1.954881 -0.979845 -0.199759 0.000000 0.187500 1.000000
0.087007 0.398511 1.954881 -0.979845 -0.199759 0.000000 0.156250 1.000000
0.087007 0.398511 -0.045119 -0.979845 -0.199759 0.000000 0.156250 0.500000
0.694468 0.756258 1.797062 0.964812 0.262606 -0.013278 0.406250 0.500000
0.694468 0.756258 2.523424 0.964812 0.262606 -0.013278 0.406250 1.000000
0.707963 0.743405 2.523424 0.964812 0.262606 -0.013278 0.375000 1.000000
0.687970 0.743405 1.797062 0.964812 0.262606 -0.013278 0.375000 0.500000
0.087007 0.398511 -0.045119 -0.999548 0.030052 0.000000 0.156250 0.500000
0.087007 0.398511 1.954881 -0.999548 0.030052 0.000000 0.156250 1.000000
0.090549 0.516329 1.954881 -0.999548 0.030052 0.000000 0.125000 1.000000
0.090549 0.516329 -0.045119 -0.999548 0.030052 0.000000 0.125000 0.500000
0.090549 0.516329 -0.045119 -0.975534 0.219847 0.000000 0.125000 0.500000
0.090549 0.516329 1.954881 -0.975534 0.219847 0.000000 0.125000 1.000000
0.118935 0.642287 1.954881 -0.975534 0.219847 0.000000 0.093750 1.000000
0.118935 0.642287 -0.045119 -0.975534 0.219847 0.000000 0.093750 0.500000
0.739216 0.642038 1.797062 0.368791 0.925451 -0.086796 0.375000 0.500000
0.748577 0.723267 2.659881 0.368791 0.925451 -0.086796 0.375000 1.000000
0.744573 0.722057 2.673023 0.368791 0.925451 -0.086796 0.343750 1.000000
0.752934 0.640609 1.797062 0.368791 0.925451 -0.086796 0.343750 0.500000
0.118935 0.642287 -0.045119 -0.927393 0.374089 0.000000 0.093750 0.500000
0.118935 0.642287 1.954881 -0.927393 0.374089 0.000000 0.093750 1.000000
0.171073 0.771542 1.954881 -0.927393 0.374089 0.000000 0.062500 1.000000
0.171073 0.771542 -0.045119 -0.927393 0.374089 0.000000 0.062500 0.500000
0.445896 1.129931 1.954881 -0.000000 0.000000 1.000000 0.296822 0.485388
0.337756 1.020140 1.954881 -0.000000 0.000000 1.000000 0.250000 0.490000
0.244960 0.899128 1.954881 -0.000000 0.000000 1.000000 0.203179 0.485389
0.171073 0.771542 1.954881 -0.000000 0.000000 1.000000 0.158156 0.471731
0.118935 0.642287 1.954881 -0.000000 0.000000 1.000000 0.116663 0.449553
0.090549 0.516329 1.954881 -0.000000 0.000000 1.000000 0.080295 0.419706
0.087007 0.398511 1.954881 -0.000000 0.000000 1.000000 0.050447 0.383337
0.108444 0.293358 1.954881 -0.000000 0.000000 1.000000 0.028269 0.341844
0.154037 0.204912 1.954881 -0.000000 0.000000 1.000000 0.014612 0.296822
0.222034 0.136572 1.954881 -0.000000 0.000000 1.000000 0.010000 0.250000
0.309821 0.090964 1.954881 -0.000000 0.000000 1.000000 0.014611 0.203179
0.414025 0.069842 1.954881 -0.000000 0.000000 1.000000 0.028269 0.158156
0.530641 0.074015 1.954881 -0.000000 0.000000 1.000000 0.050447 0.116663
0.655189 0.103326 1.954881 -0.000000 0.000000 1.000000 0.080294 0.080294
0.782881 0.156646 1.954881 -0.000000 0.000000 1.000000 0.116663 0.050447
0.908811 0.231927 1.954881 -0.000000 0.000000 1.000000 0.158156 0.028269
1.028138 0.326275 1.954881 -0.000000 0.000000 1.000000 0.203178 0.014612
1.136278 0.436066 1.954881 -0.000000 0.000000 1.000000 0.250000 0.010000
1.229075 0.557080 1.954881 -0.000000 0.000000 1.000000 0.296822 0.014612
1.302962 0.684666 1.954881 -0.000000 0.000000 1.000000 0.341844 0.028269
1.355100 0.813921 1.954881 -0.000000 0.000000 1.000000 0.383337 0.050447
0.961712 0.556341 1.954881 -0.000000 0.000000 1.000000 0.419706 0.080294
0.965254 0.674160 1.954881 -0.000000 0.000000 1.000000 0.449553 0.116663
0.943816 0.779313 1.954881 -0.000000 0.000000 1.000000 0.471731 0.158156
0.898223 0.867758 1.954881 -0.000000 0.000000 1.000000 0.485388 0.203178
0.830226 0.936098 1.954881 -0.000000 0.000000 1.000000 0.490000 0.250000
0.742439 0.981705 1.954881 -0.000000 0.000000 1.000000 0.485388 0.296822
0.638235 1.002828 1.954881 -0.000000 0.000000 1.000000 0.471731 0.341844
0.521618 0.998654 1.954881 -0.000000 0.000000 1.000000 0.449553 0.383337
0.397071 0.969343 1.954881 -0.000000 0.000000 1.000000 0.419706 0.419706
0.691153 1.299560 1.954881 -0.000000 0.000000 1.000000 0.383337 0.449553
0.565224 1.224279 1.954881 -0.000000 0.000000 1.000000 0.341844 0.471731
0.171073 0.771542 -0.045119 -0.865363 0.501146 0.000000 0.062500 0.500000
0.171073 0.771542 1.954881 -0.865363 0.501146 0.000000 0.062500 1.000000
0.244960 0.899128 1.954881 -0.865363 0.501146 0.000000 0.031250 1.000000
0.244960 0.899128 -0.045119 -0.865363 0.501146 0.000000 0.031250 0.500000
0.779843 0.783640 1.797062 -0.305399 -0.952224 0.000000 0.343750 0.500000
0.779843 0.783640 2.523424 -0.305399 -0.952224 0.000000 0.343750 1.000000
0.766652 0.787870 2.523424 -0.305399 -0.952224 0.000000 0.312500 1.000000
0.766652 0.787870 1.797062 -0.305399 -0.952224 0.000000 0.312500 0.500000
0.244960 0.899128 -0.045119 -0.793544 0.608513 0.000000 0.031250 0.500000
0.244960 0.899128 1.954881 -0.793544 0.608513 0.000000 0.031250 1.000000
0.337756 1.020140 1.954881 -0.793544 0.608513 0.000000 0.000000 1.000000
0.337756 1.020140 -0.045119 -0.793544 0.608513 0.000000 0.000000 0.500000
0.337756 1.020140 -0.045119 -0.000000 0.000000 -1.000000 0.750000 0.490000
0.445896 1.129931 -0.045119 -0.000000 0.000000 -1.000000 0.796822 0.485388
0.565224 1.224279 -0.045119 -0.000000 0.000000 -1.000000 0.841844 0.471731
0.691153 1.299560 -0.045119 -0.000000 0.000000 -1.000000 0.883337 0.449553
0.818845 1.352880 -0.045119 -0.000000 0.000000 -1.000000 0.919706 0.419706
0.943393 1.382191 -0.045119 -0.000000 0.000000 -1.000000 0.949553 0.383337
1.060009 1.386365 -0.045119 -0.000000 0.000000 -1.000000 0.971731 0.341844
1.164214 1.365242 -0.045119 -0.000000 0.000000 -1.000000 0.985388 0.296822
1.252001 1.319635 -0.045119 -0.000000 0.000000 -1.000000 0.990000 0.250000
1.319997 1.251295 -0.045119 -0.000000 0.000000 -1.000000 0.985388 0.203178
1.365590 1.162849 -0.045119 -0.000000 0.000000 -1.000000 0.971731 0.158156
1.387028 1.057696 -0.045119 -0.000000 0.000000 -1.000000 0.949553 0.116663
1.383486 0.939878 -0.045119 -0.000000 0.000000 -1.000000 0.919706 0.080294
1.355100 0.813921 -0.045119 -0.000000 0.000000 -1.000000 0.883337 0.050447
1.302962 0.684666 -0.045119 -0.000000 0.000000 -1.000000 0.841844 0.028269
1.229075 0.557080 -0.045119 -0.000000 0.000000 -1.000000 0.796822 0.014612
1.136278 0.436066 -0.045119 -0.000000 0.000000 -1.000000 0.750000 0.010000
1.028138 0.326275 -0.045119 -0.000000 0.000000 -1.000000 0.703178 0.014612
0.908811 0.231927 -0.045119 -0.000000 0.000000 -1.000000 0.658156 0.028269
0.782881 0.156646 -0.045119 -0.000000 0.000000 -1.000000 0.616663 0.050447
0.655189 0.103326 -0.045119 -0.000000 0.000000 -1.000000 0.580294 0.080294
0.530641 0.074015 -0.045119 -0.000000 0.000000 -1.000000 0.550447 0.116663
0.414025 0.069842 -0.045119 -0.000000 0.000000 -1.000000 0.528269 0.158156
0.309821 0.090964 -0.045119 -0.000000 0.000000 -1.000000 0.514611 0.203179
0.222034 0.136572 -0.045119 -0.000000 0.000000 -1.000000 0.510000 0.250000
0.154037 0.204912 -0.045119 -0.000000 0.000000 -1.000000 0.514612 0.296822
0.108444 0.293358 -0.045119 -0.000000 0.000000 -1.000000 0.528269 0.341844
0.087007 0.398511 -0.045119 -0.000000 0.000000 -1.000000 0.550447 0.383337
0.090549 0.516329 -0.045119 -0.000000 0.000000 -1.000000 0.580295 0.419706
0.118935 0.642287 -0.045119 -0.000000 0.000000 -1.000000 0.616663 0.449553
0.171073 0.771542 -0.045119 -0.000000 0.000000 -1.000000 0.658156 0.471731
0.244960 0.899128 -0.045119 -0.000000 0.000000 -1.000000 0.703179 0.485389
0.682618 0.714954 1.797062 0.995316 0.092714 -0.027396 0.312500 0.500000
0.702610 0.714954 2.523424 0.995316 0.092714 -0.027396 0.312500 1.000000
0.703962 0.700450 2.523424 0.995316 0.092714 -0.027396 0.281250 1.000000
0.683969 0.700450 1.797062 0.995316 0.092714 -0.027396 0.281250 0.500000
0.779843 0.646268 1.797062 -0.410027 0.907489 -0.091335 0.281250 0.500000
0.730097 0.715592 2.695490 -0.410027 0.907489 -0.091335 0.281250 1.000000
0.720180 0.710585 2.703950 -0.410027 0.907489 -0.091335 0.250000 1.000000
0.792000 0.653139 1.797062 -0.410027 0.907489 -0.091335 0.250000 0.500000
0.792000 0.776770 1.797062 -0.492004 -0.870593 0.000000 0.250000 0.500000
0.792000 0.776770 2.523424 -0.492004 -0.870593 0.000000 0.250000 1.000000
0.779843 0.783640 2.523424 -0.492004 -0.870593 0.000000 0.218750 1.000000
0.779843 0.783640 1.797062 -0.492004 -0.870593 0.000000 0.218750 0.500000
0.683969 0.729458 1.797062 0.995316 -0.092714 -0.027396 0.218750 0.500000
0.703962 0.729458 2.523424 0.995316 -0.092714 -0.027396 0.218750 1.000000
0.702610 0.714954 2.523424 0.995316 -0.092714 -0.027396 0.187500 1.000000
0.682618 0.714954 1.797062 0.995316 -0.092714 -0.027396 0.187500 0.500000
0.821899 0.700450 1.797062 -0.159887 -0.979868 -0.119562 0.187500 0.500000
0.716486 0.643746 2.523424 -0.159887 -0.979868 -0.119562 0.187500 1.000000
0.713156 0.629565 2.523424 -0.159887 -0.979868 -0.119562 0.156250 1.000000
0.823250 0.714954 1.797062 -0.159887 -0.979868 -0.119562 0.156250 0.500000
0.802655 0.767524 1.797062 -0.655379 -0.755300 0.000000 0.156250 0.500000
0.802655 0.767524 2.523424 -0.655379 -0.755300 0.000000 0.156250 1.000000
0.792000 0.776770 2.523424 -0.655379 -0.755300 0.000000 0.125000 1.000000
0.792000 0.776770 1.797062 -0.655379 -0.755300 0.000000 0.125000 0.500000
0.687970 0.743405 1.797062 0.960883 -0.275688 -0.026448 0.125000 0.500000
0.707963 0.743405 2.523424 0.960883 -0.275688 -0.026448 0.125000 1.000000
0.703962 0.729458 2.523424 0.960883 -0.275688 -0.026448 0.093750 1.000000
0.683969 0.729458 1.797062 0.960883 -0.275688 -0.026448 0.093750 0.500000
0.811400 0.756258 1.797062 -0.789950 -0.613171 0.000000 0.093750 0.500000
0.811400 0.756258 2.523424 -0.789950 -0.613171 0.000000 0.093750 1.000000
0.802655 0.767524 2.523424 -0.789950 -0.613171 0.000000 0.062500 1.000000
0.802655 0.767524 1.797062 -0.789950 -0.613171 0.000000 0.062500 0.500000
0.817898 0.743405 1.797062 -0.892439 -0.451169 0.000000 0.062500 0.500000
0.817898 0.743405 2.523424 -0.892439 -0.451169 0.000000 0.062500 1.000000
0.811400 0.756258 2.523424 -0.892439 -0.451169 0.000000 0.031250 1.000000
0.811400 0.756258 1.797062 -0.892439 -0.451169 0.000000 0.031250 0.500000
0.821899 0.729458 1.797062 -0.814381 0.580121 -0.015625 0.031250 0.500000
0.712502 0.615013 2.523424 -0.814381 0.580121 -0.015625 0.031250 1.000000
0.817898 0.743405 2.523424 -0.814381 0.580121 -0.015625 0.000000 1.000000
0.817898 0.743405 1.797062 -0.814381 0.580121 -0.015625 0.000000 0.500000
0.683969 0.700450 1.797062 0.000001 0.000000 1.000000 0.514612 0.296822
0.687970 0.686503 1.797062 0.000001 0.000000 1.000000 0.528269 0.341844
0.694468 0.673650 1.797062 0.000001 0.000000 1.000000 0.550447 0.383337
0.703213 0.662384 1.797062 0.000001 0.000000 1.000000 0.580295 0.419706
0.713868 0.653138 1.797062 0.000001 0.000000 1.000000 0.616663 0.449553
0.726025 0.646268 1.797062 0.000001 0.000000 1.000000 0.658156 0.471731
0.739216 0.642038 1.797062 0.000001 0.000000 1.000000 0.703179 0.485389
0.752934 0.640609 1.797062 0.000001 0.000000 1.000000 0.750000 0.490000
0.766652 0.642038 1.797062 0.000001 0.000000 1.000000 0.796822 0.485388
0.779843 0.646268 1.797062 0.000001 0.000000 1.000000 0.841844 0.471731
0.792000 0.653139 1.797062 0.000001 0.000000 1.000000 0.883337 0.449553
0.802655 0.662384 1.797062 0.000001 0.000000 1.000000 0.919706 0.419706
0.811400 0.673650 1.797062 0.000001 0.000000 1.000000 0.949553 0.383337
0.817898 0.686503 1.797062 0.000001 0.000000 1.000000 0.971731 0.341844
0.821899 0.700450 1.797062 0.000001 0.000000 1.000000 0.985388 0.296822
0.823250 0.714954 1.797062 0.000001 0.000000 1.000000 0.990000 0.250000
0.821899 0.729458 1.797062 0.000001 0.000000 1.000000 0.985388 0.203178
0.817898 0.743405 1.797062 0.000001 0.000000 1.000000 0.971731 0.158156
0.811400 0.756258 1.797062 0.000001 0.000000 1.000000 0.949553 0.116663
0.802655 0.767524 1.797062 0.000001 0.000000 1.000000 0.919706 0.080294
0.792000 0.776770 1.797062 0.000001 0.000000 1.000000 0.883337 0.050447
0.779843 0.783640 1.797062 0.000001 0.000000 1.000000 0.841844 0.028269
0.766652 0.787870 1.797062 0.000001 0.000000 1.000000 0.796822 0.014612
0.752934 0.789299 1.797062 0.000001 0.000000 1.000000 0.750000 0.010000
0.739216 0.787870 1.797062 0.000001 0.000000 1.000000 0.703178 0.014612
0.726025 0.783640 1.797062 0.000001 0.000000 1.000000 0.658156 0.028269
0.713868 0.776770 1.797062 0.000001 0.000000 1.000000 0.616663 0.050447
0.703213 0.767524 1.797062 0.000001 0.000000 1.000000 0.580294 0.080294
0.694468 0.756258 1.797062 0.000001 0.000000 1.000000 0.550447 0.116663
0.687970 0.743405 1.797062 0.000001 0.000000 1.000000 0.528269 0.158156
0.683969 0.729458 1.797062 0.000001 0.000000 1.000000 0.514611 0.203179
0.682618 0.714954 1.797062 0.000001 0.000000 1.000000 0.510000 0.250000
4 0 1 2 3
4 4 5 6 7
4 8 9 10 11
4 12 13 14 15
4 16 17 18 19
4 20 21 22 23
4 24 25 26 27
4 28 29 30 31
4 32 33 34 35
4 36 37 38 39
4 40 41 42 43
4 44 45 46 47
4 48 49 50 51
4 52 53 54 55
4 56 57 58 59
4 60 61 62 63
4 64 65 66 67
4 68 69 70 71
4 72 73 74 75
4 76 77 78 79
4 80 81 82 83
4 84 85 86 87
4 88 89 90 91
4 92 93 94 95
4 96 97 98 99
4 100 101 102 103
4 104 105 106 107
4 108 109 110 111
4 112 113 114 115
4 116 117 118 119
4 120 121 122 123
4 124 125 126 127
4 128 129 130 131
4 132 133 134 135
4 136 137 138 139
4 140 141 142 143
32 144 145 146 147 148 149 150 151 152 153 154 155 156 157 158 159 160 161 162 163 164 165 166 167 168 169 170 171 172 173 174 175
4 176 177 178 179
4 180 181 182 183
32 184 185 186 187 188 189 190 191 192 193 194 195 196 197 198 199 200 201 202 203 204 205 206 207 208 209 210 211 212 213 214 215
4 216 217 218 219
4 220 221 222 223
4 224 225 226 227
4 228 229 230 231
4 232 233 234 235
4 236 237 238 239
4 240 241 242 243
4 244 245 246 247
4 248 249 250 251
4 252 253 254 255
4 256 257 258 259
4 260 261 262 263
4 264 265 266 267
4 268 269 270 271
4 272 273 274 275
4 276 277 278 279
4 280 281 282 283
4 284 285 286 287
4 288 289 290 291
4 292 293 294 295
4 296 297 298 299
4 300 301 302 303
4 304 305 306 307
32 308 309 310 311 312 313 314 315 316 317 318 319 320 321 322 323 324 325 326 327 328 329 330 331 332 333 334 335 336 337 338 339
4 340 341 342 343
4 344 345 346 347
4 348 349 350 351
4 352 353 354 355
4 356 357 358 359
4 360 361 362 363
4 364 365 366 367
4 368 369 370 371
4 372 373 374 375
4 376 377 378 379
4 380 381 382 383
4 384 385 386 387
4 388 389 390 391
4 392 393 394 395
4 396 397 398 399
4 400 401 402 403
4 404 405 406 407
4 408 409 410 411
4 412 413 414 415
4 416 417 418 419
4 420 421 422 423
4 424 425 426 427
4 428 429 430 431
4 432 433 434 435
4 436 437 438 439
4 440 441 442 443
4 444 445 446 447
4 448 449 450 451
32 452 453 454 455 456 457 458 459 460 461 462 463 464 465 466 467 468 469 470 471 472 473 474 475 476 477 478 479 480 481 482 483
4 484 485 486 487
4 488 489 490 491
4 492 493 494 495
32 496 497 498 499 500 501 502 503 504 505 506 507 508 509 510 511 512 513 514 515 516 517 518 519 520 521 522 523 524 525 526 527
4 528 529 530 531
4 532 533 534 535
4 536 537 538 539
4 540 541 542 543
4 544 545 546 547
4 548 549 550 551
4 552 553 554 555
4 556 557 558 559
4 560 561 562 563
4 564 565 566 567
32 568 569 570 571 572 573 574 575 576 577 578 579 580 581 582 583 584 585 586 587 588 589 590 591 592 593 594 595 596 597 598 599
